<mxfile host="app.diagrams.net" modified="2020-09-20T07:29:49.439Z" agent="5.0 (X11; Linux x86_64) AppleWebKit/537.36 (KHTML, like Gecko) Chrome/85.0.4183.102 Safari/537.36" etag="fpTjKLrCVV0G53eGw1QA" version="13.7.3" type="github">
  <diagram id="R2lEEEUBdFMjLlhIrx00" name="Page-1">
    <mxGraphModel dx="1718" dy="463" grid="1" gridSize="10" guides="1" tooltips="1" connect="1" arrows="1" fold="1" page="1" pageScale="1" pageWidth="850" pageHeight="1100" math="0" shadow="0" extFonts="Permanent Marker^https://fonts.googleapis.com/css?family=Permanent+Marker">
      <root>
        <mxCell id="0" />
        <mxCell id="1" parent="0" />
        <mxCell id="mwXAPHxpIqWnI9eltsf--1" value="&lt;h2&gt;App Dashboard&lt;/h2&gt;" style="rounded=1;whiteSpace=wrap;html=1;fillColor=#d5e8d4;strokeColor=#82b366;" vertex="1" parent="1">
          <mxGeometry x="227.5" y="300" width="260" height="110" as="geometry" />
        </mxCell>
        <mxCell id="mwXAPHxpIqWnI9eltsf--7" value="" style="endArrow=classic;startArrow=classic;html=1;" edge="1" parent="1">
          <mxGeometry width="50" height="50" relative="1" as="geometry">
            <mxPoint x="426" y="288" as="sourcePoint" />
            <mxPoint x="530" y="190" as="targetPoint" />
          </mxGeometry>
        </mxCell>
        <mxCell id="mwXAPHxpIqWnI9eltsf--9" value="&lt;h2&gt;Booking.com account&lt;/h2&gt;" style="rounded=0;whiteSpace=wrap;html=1;fillColor=#0050ef;strokeColor=#001DBC;fontColor=#ffffff;" vertex="1" parent="1">
          <mxGeometry x="460" y="100" width="210" height="80" as="geometry" />
        </mxCell>
        <mxCell id="mwXAPHxpIqWnI9eltsf--11" value="" style="endArrow=classic;startArrow=classic;html=1;" edge="1" parent="1">
          <mxGeometry width="50" height="50" relative="1" as="geometry">
            <mxPoint x="509" y="358" as="sourcePoint" />
            <mxPoint x="600" y="358" as="targetPoint" />
            <Array as="points" />
          </mxGeometry>
        </mxCell>
        <mxCell id="mwXAPHxpIqWnI9eltsf--12" value="&lt;h2&gt;Hotels.com account&lt;/h2&gt;" style="rounded=0;whiteSpace=wrap;html=1;fillColor=#d80073;strokeColor=#A50040;fontColor=#ffffff;" vertex="1" parent="1">
          <mxGeometry x="610" y="326" width="210" height="60" as="geometry" />
        </mxCell>
        <mxCell id="mwXAPHxpIqWnI9eltsf--13" value="&lt;h2&gt;Expedia.com account&lt;/h2&gt;" style="rounded=0;whiteSpace=wrap;html=1;fillColor=#e3c800;strokeColor=#B09500;fontColor=#ffffff;" vertex="1" parent="1">
          <mxGeometry x="250" y="490" width="215" height="60" as="geometry" />
        </mxCell>
        <mxCell id="mwXAPHxpIqWnI9eltsf--14" value="" style="endArrow=classic;startArrow=classic;html=1;" edge="1" parent="1">
          <mxGeometry width="50" height="50" relative="1" as="geometry">
            <mxPoint x="357" y="480" as="sourcePoint" />
            <mxPoint x="357" y="420" as="targetPoint" />
            <Array as="points">
              <mxPoint x="357" y="460" />
            </Array>
          </mxGeometry>
        </mxCell>
        <mxCell id="mwXAPHxpIqWnI9eltsf--18" value="" style="edgeStyle=orthogonalEdgeStyle;rounded=0;orthogonalLoop=1;jettySize=auto;html=1;endArrow=async;endFill=1;" edge="1" parent="1" source="mwXAPHxpIqWnI9eltsf--17" target="mwXAPHxpIqWnI9eltsf--1">
          <mxGeometry relative="1" as="geometry" />
        </mxCell>
        <mxCell id="mwXAPHxpIqWnI9eltsf--17" value="Users should be able to controll all accounts booking service from single dashboard" style="text;html=1;align=center;verticalAlign=middle;resizable=0;points=[];autosize=1;" vertex="1" parent="1">
          <mxGeometry x="-275" y="306" width="460" height="20" as="geometry" />
        </mxCell>
      </root>
    </mxGraphModel>
  </diagram>
</mxfile>
